<?xml version="1.0" standalone="no"?>
<!DOCTYPE svg PUBLIC "-//W3C//DTD SVG 1.1//EN" "http://www.w3.org/Graphics/SVG/1.1/DTD/svg11.dtd">
<svg width="800" height="600" version="1.1" xmlns="http://www.w3.org/2000/svg">
<rect width="800" height="600" x="0" y="0" style="fill:rgb(238,238,238);stroke:none"/>
<rect width="800" height="600" x="0" y="0" style="fill:rgb(255,255,255);stroke:none"/>
<text x="2" y="566" fill="rgb(0,0,0)" font-family="Arial" font-size="12">0</text>
<text x="2" y="506" fill="rgb(0,0,0)" font-family="Arial" font-size="12">1000000</text>
<text x="2" y="445" fill="rgb(0,0,0)" font-family="Arial" font-size="12">2000000</text>
<text x="2" y="385" fill="rgb(0,0,0)" font-family="Arial" font-size="12">3000000</text>
<text x="2" y="324" fill="rgb(0,0,0)" font-family="Arial" font-size="12">4000000</text>
<text x="2" y="263" fill="rgb(0,0,0)" font-family="Arial" font-size="12">5000000</text>
<text x="2" y="203" fill="rgb(0,0,0)" font-family="Arial" font-size="12">6000000</text>
<text x="2" y="142" fill="rgb(0,0,0)" font-family="Arial" font-size="12">7000000</text>
<text x="2" y="81" fill="rgb(0,0,0)" font-family="Arial" font-size="12">8000000</text>
<text x="286" y="30" fill="rgb(0,0,0)" font-family="Arial" font-size="12">Quality score distribution over all sequences</text>
<line x1="61" y1="560" x2="790" y2="560" stroke="rgb(0,0,0)" stroke-width="1"/>
<line x1="61" y1="560" x2="61" y2="40" stroke="rgb(0,0,0)" stroke-width="1"/>
<text x="281" y="595" fill="rgb(0,0,0)" font-family="Arial" font-size="12">Mean Sequence Quality (Phred Score)</text>
<text x="83" y="575" fill="rgb(0,0,0)" font-family="Arial" font-size="12">29</text>
<rect width="60" height="520" x="121" y="40" style="fill:rgb(230,230,230);stroke:none"/>
<text x="143" y="575" fill="rgb(0,0,0)" font-family="Arial" font-size="12">30</text>
<text x="203" y="575" fill="rgb(0,0,0)" font-family="Arial" font-size="12">31</text>
<rect width="60" height="520" x="241" y="40" style="fill:rgb(230,230,230);stroke:none"/>
<text x="263" y="575" fill="rgb(0,0,0)" font-family="Arial" font-size="12">32</text>
<text x="323" y="575" fill="rgb(0,0,0)" font-family="Arial" font-size="12">33</text>
<rect width="60" height="520" x="361" y="40" style="fill:rgb(230,230,230);stroke:none"/>
<text x="383" y="575" fill="rgb(0,0,0)" font-family="Arial" font-size="12">34</text>
<text x="443" y="575" fill="rgb(0,0,0)" font-family="Arial" font-size="12">35</text>
<rect width="60" height="520" x="481" y="40" style="fill:rgb(230,230,230);stroke:none"/>
<text x="503" y="575" fill="rgb(0,0,0)" font-family="Arial" font-size="12">36</text>
<text x="563" y="575" fill="rgb(0,0,0)" font-family="Arial" font-size="12">37</text>
<rect width="60" height="520" x="601" y="40" style="fill:rgb(230,230,230);stroke:none"/>
<text x="623" y="575" fill="rgb(0,0,0)" font-family="Arial" font-size="12">38</text>
<text x="683" y="575" fill="rgb(0,0,0)" font-family="Arial" font-size="12">39</text>
<rect width="60" height="520" x="721" y="40" style="fill:rgb(230,230,230);stroke:none"/>
<text x="743" y="575" fill="rgb(0,0,0)" font-family="Arial" font-size="12">40</text>
<line x1="61" y1="560" x2="790" y2="560" stroke="rgb(180,180,180)" stroke-width="1"/>
<line x1="61" y1="500" x2="790" y2="500" stroke="rgb(180,180,180)" stroke-width="1"/>
<line x1="61" y1="439" x2="790" y2="439" stroke="rgb(180,180,180)" stroke-width="1"/>
<line x1="61" y1="379" x2="790" y2="379" stroke="rgb(180,180,180)" stroke-width="1"/>
<line x1="61" y1="318" x2="790" y2="318" stroke="rgb(180,180,180)" stroke-width="1"/>
<line x1="61" y1="257" x2="790" y2="257" stroke="rgb(180,180,180)" stroke-width="1"/>
<line x1="61" y1="197" x2="790" y2="197" stroke="rgb(180,180,180)" stroke-width="1"/>
<line x1="61" y1="136" x2="790" y2="136" stroke="rgb(180,180,180)" stroke-width="1"/>
<line x1="61" y1="75" x2="790" y2="75" stroke="rgb(180,180,180)" stroke-width="1"/>
<line x1="91" y1="560" x2="151" y2="560" stroke="rgb(136,34,85)" stroke-width="1"/>
<line x1="151" y1="560" x2="211" y2="560" stroke="rgb(136,34,85)" stroke-width="1"/>
<line x1="211" y1="560" x2="271" y2="557" stroke="rgb(136,34,85)" stroke-width="1"/>
<line x1="271" y1="557" x2="331" y2="557" stroke="rgb(136,34,85)" stroke-width="1"/>
<line x1="331" y1="557" x2="391" y2="556" stroke="rgb(136,34,85)" stroke-width="1"/>
<line x1="391" y1="556" x2="451" y2="555" stroke="rgb(136,34,85)" stroke-width="1"/>
<line x1="451" y1="555" x2="511" y2="553" stroke="rgb(136,34,85)" stroke-width="1"/>
<line x1="511" y1="553" x2="571" y2="548" stroke="rgb(136,34,85)" stroke-width="1"/>
<line x1="571" y1="548" x2="631" y2="538" stroke="rgb(136,34,85)" stroke-width="1"/>
<line x1="631" y1="538" x2="691" y2="507" stroke="rgb(136,34,85)" stroke-width="1"/>
<line x1="691" y1="507" x2="751" y2="40" stroke="rgb(136,34,85)" stroke-width="1"/>
<rect width="183" height="23" x="607" y="40" style="fill:rgb(255,255,255);stroke:none"/>
<rect width="183" height="23" x="607" y="40" rx="0" ry="0" style="fill:none;stroke-width:1;stroke:rgb(192,192,192)"/>
<text x="610" y="55" fill="rgb(136,34,85)" font-family="Arial" font-size="12" font-weight="bold">Average Quality per read</text>
</svg>
