<?xml version="1.0" standalone="no"?>
<!DOCTYPE svg PUBLIC "-//W3C//DTD SVG 1.1//EN" "http://www.w3.org/Graphics/SVG/1.1/DTD/svg11.dtd">
<svg width="800" height="600" version="1.1" xmlns="http://www.w3.org/2000/svg">
<rect width="800" height="600" x="0" y="0" style="fill:rgb(238,238,238);stroke:none"/>
<rect width="800" height="600" x="0" y="0" style="fill:rgb(255,255,255);stroke:none"/>
<text x="2" y="566" fill="rgb(0,0,0)" font-family="Arial" font-size="12">0</text>
<text x="2" y="491" fill="rgb(0,0,0)" font-family="Arial" font-size="12">1000000</text>
<text x="2" y="416" fill="rgb(0,0,0)" font-family="Arial" font-size="12">2000000</text>
<text x="2" y="341" fill="rgb(0,0,0)" font-family="Arial" font-size="12">3000000</text>
<text x="2" y="266" fill="rgb(0,0,0)" font-family="Arial" font-size="12">4000000</text>
<text x="2" y="191" fill="rgb(0,0,0)" font-family="Arial" font-size="12">5000000</text>
<text x="2" y="116" fill="rgb(0,0,0)" font-family="Arial" font-size="12">6000000</text>
<text x="286" y="30" fill="rgb(0,0,0)" font-family="Arial" font-size="12">Quality score distribution over all sequences</text>
<line x1="61" y1="560" x2="790" y2="560" stroke="rgb(0,0,0)" stroke-width="1"/>
<line x1="61" y1="560" x2="61" y2="40" stroke="rgb(0,0,0)" stroke-width="1"/>
<text x="281" y="595" fill="rgb(0,0,0)" font-family="Arial" font-size="12">Mean Sequence Quality (Phred Score)</text>
<text x="83" y="575" fill="rgb(0,0,0)" font-family="Arial" font-size="12">29</text>
<rect width="60" height="520" x="121" y="40" style="fill:rgb(230,230,230);stroke:none"/>
<text x="143" y="575" fill="rgb(0,0,0)" font-family="Arial" font-size="12">30</text>
<text x="203" y="575" fill="rgb(0,0,0)" font-family="Arial" font-size="12">31</text>
<rect width="60" height="520" x="241" y="40" style="fill:rgb(230,230,230);stroke:none"/>
<text x="263" y="575" fill="rgb(0,0,0)" font-family="Arial" font-size="12">32</text>
<text x="323" y="575" fill="rgb(0,0,0)" font-family="Arial" font-size="12">33</text>
<rect width="60" height="520" x="361" y="40" style="fill:rgb(230,230,230);stroke:none"/>
<text x="383" y="575" fill="rgb(0,0,0)" font-family="Arial" font-size="12">34</text>
<text x="443" y="575" fill="rgb(0,0,0)" font-family="Arial" font-size="12">35</text>
<rect width="60" height="520" x="481" y="40" style="fill:rgb(230,230,230);stroke:none"/>
<text x="503" y="575" fill="rgb(0,0,0)" font-family="Arial" font-size="12">36</text>
<text x="563" y="575" fill="rgb(0,0,0)" font-family="Arial" font-size="12">37</text>
<rect width="60" height="520" x="601" y="40" style="fill:rgb(230,230,230);stroke:none"/>
<text x="623" y="575" fill="rgb(0,0,0)" font-family="Arial" font-size="12">38</text>
<text x="683" y="575" fill="rgb(0,0,0)" font-family="Arial" font-size="12">39</text>
<rect width="60" height="520" x="721" y="40" style="fill:rgb(230,230,230);stroke:none"/>
<text x="743" y="575" fill="rgb(0,0,0)" font-family="Arial" font-size="12">40</text>
<line x1="61" y1="560" x2="790" y2="560" stroke="rgb(180,180,180)" stroke-width="1"/>
<line x1="61" y1="485" x2="790" y2="485" stroke="rgb(180,180,180)" stroke-width="1"/>
<line x1="61" y1="410" x2="790" y2="410" stroke="rgb(180,180,180)" stroke-width="1"/>
<line x1="61" y1="335" x2="790" y2="335" stroke="rgb(180,180,180)" stroke-width="1"/>
<line x1="61" y1="260" x2="790" y2="260" stroke="rgb(180,180,180)" stroke-width="1"/>
<line x1="61" y1="185" x2="790" y2="185" stroke="rgb(180,180,180)" stroke-width="1"/>
<line x1="61" y1="110" x2="790" y2="110" stroke="rgb(180,180,180)" stroke-width="1"/>
<line x1="91" y1="560" x2="151" y2="559" stroke="rgb(136,34,85)" stroke-width="1"/>
<line x1="151" y1="559" x2="211" y2="559" stroke="rgb(136,34,85)" stroke-width="1"/>
<line x1="211" y1="559" x2="271" y2="554" stroke="rgb(136,34,85)" stroke-width="1"/>
<line x1="271" y1="554" x2="331" y2="553" stroke="rgb(136,34,85)" stroke-width="1"/>
<line x1="331" y1="553" x2="391" y2="553" stroke="rgb(136,34,85)" stroke-width="1"/>
<line x1="391" y1="553" x2="451" y2="552" stroke="rgb(136,34,85)" stroke-width="1"/>
<line x1="451" y1="552" x2="511" y2="547" stroke="rgb(136,34,85)" stroke-width="1"/>
<line x1="511" y1="547" x2="571" y2="535" stroke="rgb(136,34,85)" stroke-width="1"/>
<line x1="571" y1="535" x2="631" y2="505" stroke="rgb(136,34,85)" stroke-width="1"/>
<line x1="631" y1="505" x2="691" y2="420" stroke="rgb(136,34,85)" stroke-width="1"/>
<line x1="691" y1="420" x2="751" y2="40" stroke="rgb(136,34,85)" stroke-width="1"/>
<rect width="183" height="23" x="607" y="40" style="fill:rgb(255,255,255);stroke:none"/>
<rect width="183" height="23" x="607" y="40" rx="0" ry="0" style="fill:none;stroke-width:1;stroke:rgb(192,192,192)"/>
<text x="610" y="55" fill="rgb(136,34,85)" font-family="Arial" font-size="12" font-weight="bold">Average Quality per read</text>
</svg>
